<svg id="Camada_1" data-name="Camada 1" xmlns="http://www.w3.org/2000/svg" viewBox="0 0 1536.59 178.52">
  <title>Texto</title>
  <g>
    <path d="M89.56,35.86l-26.3,69.7H52.76l-26.3-69.7h9.7L58.06,96,80,35.86Z" transform="translate(-26.46 -29.46)" style="fill: #fff"/>
    <path d="M149.26,81.56h-43.8q.5,8.1,5.55,12.65a17.66,17.66,0,0,0,12.25,4.55A16.87,16.87,0,0,0,133.11,96a14.65,14.65,0,0,0,5.55-7.35h9.8a23.6,23.6,0,0,1-8.8,12.85q-6.6,5-16.4,4.95a27.73,27.73,0,0,1-14-3.5A24.79,24.79,0,0,1,99.66,93a30.8,30.8,0,0,1-3.5-15,31.23,31.23,0,0,1,3.4-14.9,23.81,23.81,0,0,1,9.55-9.85,28.41,28.41,0,0,1,14.15-3.45,27.47,27.47,0,0,1,13.8,3.4,23.5,23.5,0,0,1,9.25,9.35,27.65,27.65,0,0,1,3.25,13.45A53.71,53.71,0,0,1,149.26,81.56Zm-11.4-16.35a15,15,0,0,0-6.25-5.7,19.51,19.51,0,0,0-8.75-1.95A16.83,16.83,0,0,0,111.11,62q-4.86,4.4-5.55,12.2h34.6A16.81,16.81,0,0,0,137.86,65.21Z" transform="translate(-26.46 -29.46)" style="fill: #fff"/>
    <path d="M171,117.46q0,7.29-3.7,10.7t-10.8,3.4h-5.3v-7.7H155q3.79,0,5.35-1.5t1.55-5.1V50.76H171Zm-8.85-77.4a6.41,6.41,0,0,1,0-8.8,6.16,6.16,0,0,1,8.7,0,6.41,6.41,0,0,1,0,8.8,6.16,6.16,0,0,1-8.7,0Z" transform="translate(-26.46 -29.46)" style="fill: #fff"/>
    <path d="M196.3,103A25,25,0,0,1,186.5,93a30.6,30.6,0,0,1-3.55-15,29.66,29.66,0,0,1,3.65-14.85,25.19,25.19,0,0,1,10-9.9,30.54,30.54,0,0,1,28.2,0,25.2,25.2,0,0,1,9.95,9.85,29.46,29.46,0,0,1,3.65,14.9,29.22,29.22,0,0,1-3.75,15A26,26,0,0,1,224.45,103a29.12,29.12,0,0,1-14.2,3.5A28.11,28.11,0,0,1,196.3,103Zm23.15-6.8a17.52,17.52,0,0,0,7-6.9,22.08,22.08,0,0,0,2.65-11.2,22.36,22.36,0,0,0-2.6-11.2,17,17,0,0,0-6.8-6.85,19.63,19.63,0,0,0-18.25,0,16.54,16.54,0,0,0-6.65,6.85,23.23,23.23,0,0,0-2.5,11.2,23.86,23.86,0,0,0,2.45,11.3,16.38,16.38,0,0,0,6.55,6.85,18.44,18.44,0,0,0,9,2.25A19.22,19.22,0,0,0,219.45,96.16Z" transform="translate(-26.46 -29.46)" style="fill: #fff"/>
    <path d="M277.05,63.21a24.67,24.67,0,0,1,9.35-9.85,25.79,25.79,0,0,1,13.35-3.5A24,24,0,0,1,312.2,53a20.3,20.3,0,0,1,7.85,7.75v-10h9.2v80.8h-9.2V95.46a21.51,21.51,0,0,1-8,7.8,24.28,24.28,0,0,1-12.6,3.2,24.68,24.68,0,0,1-13.1-3.6,25.32,25.32,0,0,1-9.3-10.1,31.56,31.56,0,0,1-3.4-14.8A30.85,30.85,0,0,1,277.05,63.21Zm40.5,4.05a17.52,17.52,0,0,0-6.75-7.05,19.14,19.14,0,0,0-18.65-.05,17.41,17.41,0,0,0-6.7,7A22.32,22.32,0,0,0,283,78a22.87,22.87,0,0,0,2.5,11,17.75,17.75,0,0,0,6.7,7.1,18.15,18.15,0,0,0,9.3,2.45A18.41,18.41,0,0,0,310.8,96a17.53,17.53,0,0,0,6.75-7.1,22.54,22.54,0,0,0,2.5-10.85A22.21,22.21,0,0,0,317.55,67.26Z" transform="translate(-26.46 -29.46)" style="fill: #fff"/>
    <path d="M393.25,50.76v54.8h-9.1v-8.1A17.72,17.72,0,0,1,376.9,104a22.46,22.46,0,0,1-10.25,2.35,24.67,24.67,0,0,1-11.5-2.65,19.32,19.32,0,0,1-8-7.95,26.28,26.28,0,0,1-3-12.9V50.76h9v30.9q0,8.1,4.1,12.45t11.2,4.35q7.31,0,11.5-4.5t4.2-13.1V50.76Z" transform="translate(-26.46 -29.46)" style="fill: #fff"/>
    <path d="M458.35,81.56h-43.8q.51,8.1,5.55,12.65a17.67,17.67,0,0,0,12.25,4.55A16.83,16.83,0,0,0,442.2,96a14.54,14.54,0,0,0,5.55-7.35h9.8a23.55,23.55,0,0,1-8.8,12.85q-6.6,5-16.4,4.95a27.73,27.73,0,0,1-14-3.5A24.86,24.86,0,0,1,408.75,93a30.91,30.91,0,0,1-3.5-15,31.35,31.35,0,0,1,3.4-14.9,23.87,23.87,0,0,1,9.55-9.85,28.44,28.44,0,0,1,14.15-3.45,27.47,27.47,0,0,1,13.8,3.4,23.44,23.44,0,0,1,9.25,9.35,27.54,27.54,0,0,1,3.25,13.45A53.71,53.71,0,0,1,458.35,81.56ZM447,65.21a14.9,14.9,0,0,0-6.25-5.7A19.48,19.48,0,0,0,432,57.56,16.85,16.85,0,0,0,420.2,62q-4.84,4.4-5.55,12.2h34.6A16.72,16.72,0,0,0,447,65.21Z" transform="translate(-26.46 -29.46)" style="fill: #fff"/>
    <path d="M517.75,97.16l17-46.4h9.7L523,105.56h-10.6l-21.5-54.8h9.8Z" transform="translate(-26.46 -29.46)" style="fill: #fff"/>
    <path d="M563.4,103A25,25,0,0,1,553.6,93a30.49,30.49,0,0,1-3.55-15,29.66,29.66,0,0,1,3.65-14.85,25.13,25.13,0,0,1,9.95-9.9,30.54,30.54,0,0,1,28.2,0,25.2,25.2,0,0,1,9.95,9.85,29.56,29.56,0,0,1,3.65,14.9,29.22,29.22,0,0,1-3.75,15A26,26,0,0,1,591.55,103a29.15,29.15,0,0,1-14.2,3.5A28.11,28.11,0,0,1,563.4,103Zm23.15-6.8a17.59,17.59,0,0,0,7-6.9,22.08,22.08,0,0,0,2.65-11.2,22.46,22.46,0,0,0-2.6-11.2,17,17,0,0,0-6.8-6.85,19.63,19.63,0,0,0-18.25,0,16.48,16.48,0,0,0-6.65,6.85,23.12,23.12,0,0,0-2.5,11.2,23.86,23.86,0,0,0,2.45,11.3,16.32,16.32,0,0,0,6.55,6.85,18.38,18.38,0,0,0,9,2.25A19.25,19.25,0,0,0,586.55,96.16Z" transform="translate(-26.46 -29.46)" style="fill: #fff"/>
    <path d="M617.45,63.21a24.44,24.44,0,0,1,9.45-9.85,27.08,27.08,0,0,1,13.85-3.5q10.1,0,16.65,4.9a23.09,23.09,0,0,1,8.65,13.6h-9.8a14,14,0,0,0-5.45-7.9,16.77,16.77,0,0,0-10-2.9,16.11,16.11,0,0,0-12.6,5.35q-4.8,5.34-4.8,15.15t4.8,15.3a16.05,16.05,0,0,0,12.6,5.4,17.07,17.07,0,0,0,10-2.8,14.21,14.21,0,0,0,5.5-8h9.8a24.13,24.13,0,0,1-8.8,13.45q-6.6,5-16.5,5A27.18,27.18,0,0,1,626.9,103a24.51,24.51,0,0,1-9.45-9.9,31.5,31.5,0,0,1-3.4-15A31,31,0,0,1,617.45,63.21Z" transform="translate(-26.46 -29.46)" style="fill: #fff"/>
    <path d="M727.85,81.56h-43.8q.5,8.1,5.55,12.65a17.67,17.67,0,0,0,12.25,4.55A16.85,16.85,0,0,0,711.7,96a14.65,14.65,0,0,0,5.55-7.35h9.8a23.6,23.6,0,0,1-8.8,12.85q-6.6,5-16.4,4.95a27.73,27.73,0,0,1-14-3.5A24.79,24.79,0,0,1,678.25,93a30.91,30.91,0,0,1-3.5-15,31.23,31.23,0,0,1,3.4-14.9,23.87,23.87,0,0,1,9.55-9.85,28.44,28.44,0,0,1,14.15-3.45,27.47,27.47,0,0,1,13.8,3.4,23.5,23.5,0,0,1,9.25,9.35,27.54,27.54,0,0,1,3.25,13.45A53.71,53.71,0,0,1,727.85,81.56Zm-11.4-16.35a15,15,0,0,0-6.25-5.7,19.48,19.48,0,0,0-8.75-1.95A16.83,16.83,0,0,0,689.7,62q-4.85,4.4-5.55,12.2h34.6A16.81,16.81,0,0,0,716.45,65.21Zm-14.9-27.85-13.9,8.5v-7.2l13.9-8.3,13.8,8.3v7.2Z" transform="translate(-26.46 -29.46)" style="fill: #fff"/>
    <path d="M816.55,81.56h-43.8q.5,8.1,5.55,12.65a17.67,17.67,0,0,0,12.25,4.55A16.85,16.85,0,0,0,800.4,96,14.65,14.65,0,0,0,806,88.66h9.8a23.6,23.6,0,0,1-8.8,12.85q-6.6,5-16.4,4.95A27.73,27.73,0,0,1,776.6,103,24.79,24.79,0,0,1,767,93a30.91,30.91,0,0,1-3.5-15,31.23,31.23,0,0,1,3.4-14.9,23.87,23.87,0,0,1,9.55-9.85,28.44,28.44,0,0,1,14.15-3.45,27.47,27.47,0,0,1,13.8,3.4,23.5,23.5,0,0,1,9.25,9.35,27.54,27.54,0,0,1,3.25,13.45A53.71,53.71,0,0,1,816.55,81.56Zm-11.4-16.35a15,15,0,0,0-6.25-5.7,19.48,19.48,0,0,0-8.75-1.95A16.83,16.83,0,0,0,778.4,62q-4.85,4.4-5.55,12.2h34.6A16.81,16.81,0,0,0,805.15,65.21Z" transform="translate(-26.46 -29.46)" style="fill: #fff"/>
    <path d="M898.45,55.81q6.19,6,6.2,17.45v32.3h-9v-31q0-8.2-4.1-12.55t-11.2-4.35q-7.2,0-11.45,4.5t-4.25,13.1v30.3h-9.1V50.76h9.1v7.8a18,18,0,0,1,7.35-6.5,22.72,22.72,0,0,1,10.25-2.3Q892.25,49.76,898.45,55.81Z" transform="translate(-26.46 -29.46)" style="fill: #fff"/>
    <path d="M929.5,103A25,25,0,0,1,919.7,93a30.49,30.49,0,0,1-3.55-15,29.66,29.66,0,0,1,3.65-14.85,25.13,25.13,0,0,1,10-9.9,30.54,30.54,0,0,1,28.2,0,25.26,25.26,0,0,1,9.95,9.85,29.56,29.56,0,0,1,3.65,14.9,29.22,29.22,0,0,1-3.75,15A26,26,0,0,1,957.65,103a29.15,29.15,0,0,1-14.2,3.5A28.11,28.11,0,0,1,929.5,103Zm23.15-6.8a17.59,17.59,0,0,0,7-6.9,22.08,22.08,0,0,0,2.65-11.2,22.46,22.46,0,0,0-2.6-11.2,17,17,0,0,0-6.8-6.85,19.63,19.63,0,0,0-18.25,0A16.48,16.48,0,0,0,928,66.86a23.12,23.12,0,0,0-2.5,11.2,23.86,23.86,0,0,0,2.45,11.3,16.26,16.26,0,0,0,6.55,6.85,18.38,18.38,0,0,0,9,2.25A19.28,19.28,0,0,0,952.65,96.16Z" transform="translate(-26.46 -29.46)" style="fill: #fff"/>
    <path d="M1004,97.16l17-46.4h9.7l-21.5,54.8h-10.6l-21.5-54.8h9.8Z" transform="translate(-26.46 -29.46)" style="fill: #fff"/>
    <path d="M1049.6,103a24.89,24.89,0,0,1-9.8-9.95,30.49,30.49,0,0,1-3.55-15,29.56,29.56,0,0,1,3.65-14.85,25.13,25.13,0,0,1,9.95-9.9,30.54,30.54,0,0,1,28.2,0,25.26,25.26,0,0,1,10,9.85,29.56,29.56,0,0,1,3.65,14.9,29.22,29.22,0,0,1-3.75,15,26.08,26.08,0,0,1-10.15,9.95,29.15,29.15,0,0,1-14.2,3.5A28.06,28.06,0,0,1,1049.6,103Zm23.15-6.8a17.65,17.65,0,0,0,7-6.9,22.18,22.18,0,0,0,2.65-11.2,22.46,22.46,0,0,0-2.6-11.2A17,17,0,0,0,1073,60a19.63,19.63,0,0,0-18.25,0,16.42,16.42,0,0,0-6.65,6.85,23.12,23.12,0,0,0-2.5,11.2,23.75,23.75,0,0,0,2.45,11.3,16.26,16.26,0,0,0,6.55,6.85,18.38,18.38,0,0,0,9,2.25A19.28,19.28,0,0,0,1072.75,96.16Z" transform="translate(-26.46 -29.46)" style="fill: #fff"/>
    <path d="M1147.5,53A24,24,0,0,1,1160,49.86a25.61,25.61,0,0,1,13.25,3.5,24.67,24.67,0,0,1,9.35,9.85A30.85,30.85,0,0,1,1186,78a31.56,31.56,0,0,1-3.4,14.8,24.93,24.93,0,0,1-22.6,13.7,23.86,23.86,0,0,1-12.35-3.15,22.47,22.47,0,0,1-8.15-7.85v36.1h-9.1V50.76h9.1v10.1A21.62,21.62,0,0,1,1147.5,53Zm26.65,14.15a17.33,17.33,0,0,0-6.75-7,18.7,18.7,0,0,0-9.35-2.4,18.11,18.11,0,0,0-9.25,2.45,17.85,17.85,0,0,0-6.8,7.1,22,22,0,0,0-2.55,10.75A22.22,22.22,0,0,0,1142,88.91a17.91,17.91,0,0,0,6.8,7.1,18.21,18.21,0,0,0,9.25,2.45A18.44,18.44,0,0,0,1167.4,96a17.66,17.66,0,0,0,6.75-7.1,22.87,22.87,0,0,0,2.5-11A22.32,22.32,0,0,0,1174.15,67.16Z" transform="translate(-26.46 -29.46)" style="fill: #fff"/>
    <path d="M1207.9,103a24.89,24.89,0,0,1-9.8-9.95,30.49,30.49,0,0,1-3.55-15,29.56,29.56,0,0,1,3.65-14.85,25.13,25.13,0,0,1,10-9.9,30.54,30.54,0,0,1,28.2,0,25.26,25.26,0,0,1,10,9.85,29.56,29.56,0,0,1,3.65,14.9,29.22,29.22,0,0,1-3.75,15,26.08,26.08,0,0,1-10.15,9.95,29.15,29.15,0,0,1-14.2,3.5A28.06,28.06,0,0,1,1207.9,103Zm23.15-6.8a17.65,17.65,0,0,0,7-6.9,22.18,22.18,0,0,0,2.65-11.2,22.46,22.46,0,0,0-2.6-11.2,17,17,0,0,0-6.8-6.85A19.63,19.63,0,0,0,1213,60a16.42,16.42,0,0,0-6.65,6.85,23.12,23.12,0,0,0-2.5,11.2,23.75,23.75,0,0,0,2.45,11.3,16.26,16.26,0,0,0,6.55,6.85,18.38,18.38,0,0,0,9,2.25A19.28,19.28,0,0,0,1231.05,96.16Z" transform="translate(-26.46 -29.46)" style="fill: #fff"/>
    <path d="M1277.9,52.36a21.08,21.08,0,0,1,10.85-2.6v9.4h-2.4q-15.3,0-15.3,16.6v29.8H1262V50.76h9.1v8.9A17.38,17.38,0,0,1,1277.9,52.36Z" transform="translate(-26.46 -29.46)" style="fill: #fff"/>
    <path d="M1326,63.21a24.54,24.54,0,0,1,9.35-9.85,25.56,25.56,0,0,1,13.25-3.5,24.3,24.3,0,0,1,12.5,3.1,20.63,20.63,0,0,1,7.9,7.8v-10h9.2v54.8H1369V95.36a21.49,21.49,0,0,1-8,8,24.1,24.1,0,0,1-12.45,3.15,24.82,24.82,0,0,1-13.2-3.6,25.18,25.18,0,0,1-9.3-10.1,31.44,31.44,0,0,1-3.4-14.8A30.73,30.73,0,0,1,1326,63.21Zm40.5,4.05a17.66,17.66,0,0,0-6.75-7.05,19.14,19.14,0,0,0-18.65-.05,17.35,17.35,0,0,0-6.7,7,22.21,22.21,0,0,0-2.5,10.8,22.76,22.76,0,0,0,2.5,11,17.68,17.68,0,0,0,6.7,7.1,18.15,18.15,0,0,0,9.3,2.45A18.44,18.44,0,0,0,1359.7,96a17.66,17.66,0,0,0,6.75-7.1,22.66,22.66,0,0,0,2.5-10.85A22.32,22.32,0,0,0,1366.45,67.26Z" transform="translate(-26.46 -29.46)" style="fill: #fff"/>
    <path d="M1393.55,63.21a24.54,24.54,0,0,1,9.35-9.85,25.74,25.74,0,0,1,13.35-3.5A24.1,24.1,0,0,1,1428.7,53a20.44,20.44,0,0,1,7.85,7.75v-10h9.2v80.8h-9.2V95.46a21.58,21.58,0,0,1-8,7.8,24.28,24.28,0,0,1-12.6,3.2,24.65,24.65,0,0,1-13.1-3.6,25.18,25.18,0,0,1-9.3-10.1,31.44,31.44,0,0,1-3.4-14.8A30.73,30.73,0,0,1,1393.55,63.21Zm40.5,4.05a17.66,17.66,0,0,0-6.75-7.05,19.14,19.14,0,0,0-18.65-.05,17.35,17.35,0,0,0-6.7,7,22.21,22.21,0,0,0-2.5,10.8,22.76,22.76,0,0,0,2.5,11,17.68,17.68,0,0,0,6.7,7.1,18.15,18.15,0,0,0,9.3,2.45A18.44,18.44,0,0,0,1427.3,96a17.66,17.66,0,0,0,6.75-7.1,22.66,22.66,0,0,0,2.5-10.85A22.32,22.32,0,0,0,1434.05,67.26Z" transform="translate(-26.46 -29.46)" style="fill: #fff"/>
    <path d="M1509.75,50.76v54.8h-9.1v-8.1a17.78,17.78,0,0,1-7.25,6.55,22.52,22.52,0,0,1-10.25,2.35,24.61,24.61,0,0,1-11.5-2.65,19.27,19.27,0,0,1-8.05-7.95,26.17,26.17,0,0,1-2.95-12.9V50.76h9v30.9q0,8.1,4.1,12.45t11.2,4.35q7.29,0,11.5-4.5t4.2-13.1V50.76Z" transform="translate(-26.46 -29.46)" style="fill: #fff"/>
    <path d="M1525.44,40.06a6.2,6.2,0,0,1,4.4-10.6,5.69,5.69,0,0,1,4.25,1.8,6.41,6.41,0,0,1,0,8.8,5.69,5.69,0,0,1-4.25,1.8A6,6,0,0,1,1525.44,40.06Zm8.8,10.7v54.8h-9.1V50.76Z" transform="translate(-26.46 -29.46)" style="fill: #fff"/>
    <path d="M1552.64,104.36a6.2,6.2,0,0,1,4.4-10.6,5.69,5.69,0,0,1,4.25,1.8,6.41,6.41,0,0,1,0,8.8,5.69,5.69,0,0,1-4.25,1.8A6,6,0,0,1,1552.64,104.36Zm8.9-68.5-1.1,50h-7.6l-1.1-50Z" transform="translate(-26.46 -29.46)" style="fill: #fff"/>
  </g>
  <g>
    <path d="M110.18,140.19v5.24H96.73v44.13H90.28V145.43H76.75v-5.24Z" transform="translate(-26.46 -29.46)" style="fill: #fff"/>
    <path d="M153.32,172.56h-31a12.19,12.19,0,0,0,12.6,12.18,11.9,11.9,0,0,0,7-2,10.24,10.24,0,0,0,3.93-5.21h6.94a16.66,16.66,0,0,1-6.23,9.11,18.87,18.87,0,0,1-11.62,3.5,19.57,19.57,0,0,1-9.88-2.48,17.54,17.54,0,0,1-6.83-7,21.8,21.8,0,0,1-2.48-10.59,22.12,22.12,0,0,1,2.41-10.56,16.83,16.83,0,0,1,6.76-7,20.16,20.16,0,0,1,10-2.45,19.43,19.43,0,0,1,9.78,2.41,16.68,16.68,0,0,1,6.55,6.62,19.5,19.5,0,0,1,2.3,9.53A38.44,38.44,0,0,1,153.32,172.56ZM145.25,161a10.64,10.64,0,0,0-4.43-4,13.83,13.83,0,0,0-6.2-1.38,11.92,11.92,0,0,0-8.32,3.11,12.7,12.7,0,0,0-3.93,8.64h24.51A12,12,0,0,0,145.25,161Z" transform="translate(-26.46 -29.46)" style="fill: #fff"/>
    <path d="M192.42,154.32q4.4,4.27,4.39,12.36v22.88h-6.37v-22c0-3.87-1-6.84-2.91-8.89a10.34,10.34,0,0,0-7.93-3.08,10.64,10.64,0,0,0-8.11,3.18q-3,3.19-3,9.28v21.47H162V150.74h6.45v5.52a12.79,12.79,0,0,1,5.21-4.6A16.06,16.06,0,0,1,181,150,15.72,15.72,0,0,1,192.42,154.32Z" transform="translate(-26.46 -29.46)" style="fill: #fff"/>
    <path d="M234.57,151.91a13.36,13.36,0,0,1,5.56,5.63,19.14,19.14,0,0,1,2,9.14v22.88h-6.38v-22c0-3.87-1-6.84-2.9-8.89a10.37,10.37,0,0,0-7.94-3.08,10.64,10.64,0,0,0-8.11,3.18q-3,3.19-3,9.28v21.47h-6.44V137.14h6.44v19.12a12.8,12.8,0,0,1,5.28-4.6,17,17,0,0,1,7.54-1.63A16.74,16.74,0,0,1,234.57,151.91Z" transform="translate(-26.46 -29.46)" style="fill: #fff"/>
    <path d="M259.75,187.71a17.61,17.61,0,0,1-6.94-7,21.59,21.59,0,0,1-2.52-10.59,20.9,20.9,0,0,1,2.59-10.52,17.71,17.71,0,0,1,7-7,21.59,21.59,0,0,1,20,0,17.83,17.83,0,0,1,7.05,7,21,21,0,0,1,2.58,10.56,20.71,20.71,0,0,1-2.65,10.59,18.42,18.42,0,0,1-7.19,7,20.57,20.57,0,0,1-10.06,2.48A19.78,19.78,0,0,1,259.75,187.71Zm16.4-4.81a12.43,12.43,0,0,0,4.92-4.89,15.67,15.67,0,0,0,1.88-7.93,15.91,15.91,0,0,0-1.85-7.94,12,12,0,0,0-4.81-4.85,13.94,13.94,0,0,0-12.93,0,11.67,11.67,0,0,0-4.71,4.85,16.46,16.46,0,0,0-1.77,7.94,16.93,16.93,0,0,0,1.73,8,11.58,11.58,0,0,0,4.64,4.85,13,13,0,0,0,6.38,1.6A13.73,13.73,0,0,0,276.15,182.9Z" transform="translate(-26.46 -29.46)" style="fill: #fff"/>
    <path d="M351.37,150.74v38.82h-6.45v-5.74a12.55,12.55,0,0,1-5.13,4.64,15.88,15.88,0,0,1-7.26,1.66,17.44,17.44,0,0,1-8.15-1.87,13.64,13.64,0,0,1-5.7-5.64,18.53,18.53,0,0,1-2.09-9.13V150.74H323v21.89c0,3.82,1,6.76,2.9,8.82a10.39,10.39,0,0,0,7.93,3.08,10.62,10.62,0,0,0,8.15-3.19q3-3.19,3-9.28V150.74Z" transform="translate(-26.46 -29.46)" style="fill: #fff"/>
    <path d="M417,151.91a13.57,13.57,0,0,1,5.6,5.63,18.79,18.79,0,0,1,2.05,9.14v22.88h-6.37v-22c0-3.87-1-6.84-2.87-8.89a10.07,10.07,0,0,0-7.76-3.08,10.35,10.35,0,0,0-8,3.22q-3,3.22-3,9.31v21.4h-6.37v-22c0-3.87-1-6.84-2.87-8.89a10.07,10.07,0,0,0-7.76-3.08,10.35,10.35,0,0,0-8,3.22q-3,3.22-3,9.31v21.4h-6.44V150.74h6.44v5.59a12.86,12.86,0,0,1,5.14-4.67A15.5,15.5,0,0,1,381,150a16.72,16.72,0,0,1,8.64,2.2,13.42,13.42,0,0,1,5.6,6.44,12.69,12.69,0,0,1,5.38-6.37A15.87,15.87,0,0,1,409,150,17,17,0,0,1,417,151.91Z" transform="translate(-26.46 -29.46)" style="fill: #fff"/>
    <path d="M454.15,159.56a17.31,17.31,0,0,1,6.69-7,19.28,19.28,0,0,1,9.81-2.48q7.16,0,11.8,3.47a16.41,16.41,0,0,1,6.12,9.64h-6.94a9.91,9.91,0,0,0-3.86-5.6,11.89,11.89,0,0,0-7.12-2.05,11.41,11.41,0,0,0-8.92,3.79q-3.41,3.78-3.4,10.73t3.4,10.83a11.37,11.37,0,0,0,8.92,3.83,12.08,12.08,0,0,0,7.09-2,10.1,10.1,0,0,0,3.89-5.67h6.94a17,17,0,0,1-6.23,9.53,18.7,18.7,0,0,1-11.69,3.57,19.18,19.18,0,0,1-9.81-2.48,17.26,17.26,0,0,1-6.69-7,22.25,22.25,0,0,1-2.41-10.62A21.9,21.9,0,0,1,454.15,159.56Z" transform="translate(-26.46 -29.46)" style="fill: #fff"/>
    <path d="M531.57,150.74v38.82h-6.45v-5.74a12.55,12.55,0,0,1-5.13,4.64,15.88,15.88,0,0,1-7.26,1.66,17.44,17.44,0,0,1-8.15-1.87,13.64,13.64,0,0,1-5.7-5.64,18.53,18.53,0,0,1-2.09-9.13V150.74h6.38v21.89c0,3.82,1,6.76,2.9,8.82a10.39,10.39,0,0,0,7.93,3.08,10.62,10.62,0,0,0,8.15-3.19q3-3.19,3-9.28V150.74Z" transform="translate(-26.46 -29.46)" style="fill: #fff"/>
    <path d="M554.63,152.33a17.09,17.09,0,0,1,8.81-2.23,18.2,18.2,0,0,1,9.39,2.48,17.41,17.41,0,0,1,6.62,7A21.76,21.76,0,0,1,581.86,170a22.21,22.21,0,0,1-2.41,10.48,17.66,17.66,0,0,1-16,9.7A16.86,16.86,0,0,1,554.7,188a16,16,0,0,1-5.78-5.56V208h-6.44V150.74h6.44v7.15A15.42,15.42,0,0,1,554.63,152.33Zm18.87,10a12.17,12.17,0,0,0-4.78-5,13.16,13.16,0,0,0-6.62-1.7,12.93,12.93,0,0,0-6.55,1.73,12.71,12.71,0,0,0-4.82,5,17.07,17.07,0,0,0,0,15.3,12.64,12.64,0,0,0,4.82,5,12.84,12.84,0,0,0,6.55,1.74,13,13,0,0,0,6.62-1.74,12.42,12.42,0,0,0,4.78-5,16.12,16.12,0,0,0,1.77-7.75A15.78,15.78,0,0,0,573.5,162.36Z" transform="translate(-26.46 -29.46)" style="fill: #fff"/>
    <path d="M597.41,187.71a17.61,17.61,0,0,1-6.94-7A21.59,21.59,0,0,1,588,170.08a20.9,20.9,0,0,1,2.59-10.52,17.67,17.67,0,0,1,7.05-7,21.57,21.57,0,0,1,20,0,17.83,17.83,0,0,1,7.05,7,21,21,0,0,1,2.58,10.56,20.71,20.71,0,0,1-2.65,10.59,18.42,18.42,0,0,1-7.19,7,20.55,20.55,0,0,1-10.06,2.48A19.78,19.78,0,0,1,597.41,187.71Zm16.4-4.81a12.43,12.43,0,0,0,4.92-4.89,15.67,15.67,0,0,0,1.88-7.93,16,16,0,0,0-1.84-7.94,12.09,12.09,0,0,0-4.82-4.85,13.94,13.94,0,0,0-12.93,0,11.67,11.67,0,0,0-4.71,4.85,16.46,16.46,0,0,0-1.77,7.94,16.81,16.81,0,0,0,1.74,8,11.46,11.46,0,0,0,4.64,4.85,12.93,12.93,0,0,0,6.37,1.6A13.7,13.7,0,0,0,613.81,182.9Z" transform="translate(-26.46 -29.46)" style="fill: #fff"/>
    <path d="M690.45,151.91a13.55,13.55,0,0,1,5.59,5.63,18.79,18.79,0,0,1,2.06,9.14v22.88h-6.38v-22c0-3.87-1-6.84-2.87-8.89a10,10,0,0,0-7.75-3.08,10.38,10.38,0,0,0-8,3.22q-3,3.22-3,9.31v21.4h-6.38v-22c0-3.87-1-6.84-2.86-8.89a10.08,10.08,0,0,0-7.76-3.08,10.35,10.35,0,0,0-8,3.22q-3,3.22-3,9.31v21.4h-6.45V150.74h6.45v5.59a12.86,12.86,0,0,1,5.14-4.67,15.46,15.46,0,0,1,7.11-1.63,16.79,16.79,0,0,1,8.65,2.2,13.4,13.4,0,0,1,5.59,6.44A12.71,12.71,0,0,1,674,152.3a15.83,15.83,0,0,1,8.35-2.27A17,17,0,0,1,690.45,151.91Z" transform="translate(-26.46 -29.46)" style="fill: #fff"/>
    <path d="M735.43,156.05v22.88c0,1.89.4,3.22,1.2,4s2.2,1.17,4.18,1.17h4.75v5.46h-5.81q-5.38,0-8.08-2.48c-1.79-1.66-2.69-4.37-2.69-8.15V156.05h-5v-5.31h5V141h6.45v9.78h10.13v5.31Z" transform="translate(-26.46 -29.46)" style="fill: #fff"/>
    <path d="M788.55,172.56h-31a12.19,12.19,0,0,0,12.61,12.18,11.89,11.89,0,0,0,7-2,10.24,10.24,0,0,0,3.93-5.21h7a16.68,16.68,0,0,1-6.24,9.11,18.84,18.84,0,0,1-11.61,3.5,19.58,19.58,0,0,1-9.89-2.48,17.54,17.54,0,0,1-6.83-7,24.09,24.09,0,0,1-.07-21.15,16.83,16.83,0,0,1,6.76-7,20.17,20.17,0,0,1,10-2.45,19.42,19.42,0,0,1,9.77,2.41,16.68,16.68,0,0,1,6.55,6.62,19.5,19.5,0,0,1,2.3,9.53A38.44,38.44,0,0,1,788.55,172.56ZM780.48,161a10.58,10.58,0,0,0-4.43-4,13.83,13.83,0,0,0-6.2-1.38,11.92,11.92,0,0,0-8.32,3.11,12.7,12.7,0,0,0-3.93,8.64h24.51A12,12,0,0,0,780.48,161Z" transform="translate(-26.46 -29.46)" style="fill: #fff"/>
    <path d="M852,151.91a13.55,13.55,0,0,1,5.59,5.63,18.79,18.79,0,0,1,2.06,9.14v22.88h-6.38v-22c0-3.87-.95-6.84-2.87-8.89a10,10,0,0,0-7.75-3.08,10.37,10.37,0,0,0-8,3.22q-3,3.22-3,9.31v21.4h-6.38v-22c0-3.87-.95-6.84-2.86-8.89a10.08,10.08,0,0,0-7.76-3.08,10.35,10.35,0,0,0-8,3.22q-3,3.22-3,9.31v21.4h-6.45V150.74h6.45v5.59a12.8,12.8,0,0,1,5.14-4.67A15.46,15.46,0,0,1,816,150a16.79,16.79,0,0,1,8.65,2.2,13.4,13.4,0,0,1,5.59,6.44,12.74,12.74,0,0,1,5.38-6.37,15.89,15.89,0,0,1,8.36-2.27A17,17,0,0,1,852,151.91Z" transform="translate(-26.46 -29.46)" style="fill: #fff"/>
    <path d="M882.37,152.33a17.15,17.15,0,0,1,8.82-2.23,18.17,18.17,0,0,1,9.38,2.48,17.5,17.5,0,0,1,6.63,7A21.87,21.87,0,0,1,909.61,170a22.33,22.33,0,0,1-2.41,10.48,17.69,17.69,0,0,1-16,9.7,16.9,16.9,0,0,1-8.75-2.23,15.91,15.91,0,0,1-5.77-5.56V208h-6.45V150.74h6.45v7.15A15.31,15.31,0,0,1,882.37,152.33Zm18.88,10a12.23,12.23,0,0,0-4.78-5,13.2,13.2,0,0,0-6.63-1.7,13,13,0,0,0-6.55,1.73,12.78,12.78,0,0,0-4.82,5,17.16,17.16,0,0,0,0,15.3,12.71,12.71,0,0,0,4.82,5,12.87,12.87,0,0,0,6.55,1.74,13,13,0,0,0,6.63-1.74,12.48,12.48,0,0,0,4.78-5A16.12,16.12,0,0,0,903,170,15.78,15.78,0,0,0,901.25,162.36Z" transform="translate(-26.46 -29.46)" style="fill: #fff"/>
    <path d="M925.15,187.71a17.68,17.68,0,0,1-6.94-7,21.7,21.7,0,0,1-2.51-10.59,21,21,0,0,1,2.58-10.52,17.8,17.8,0,0,1,7.05-7,21.59,21.59,0,0,1,20,0,17.8,17.8,0,0,1,7,7,22.61,22.61,0,0,1-.07,21.15,18.36,18.36,0,0,1-7.19,7A20.51,20.51,0,0,1,935,190.19,19.82,19.82,0,0,1,925.15,187.71Zm16.4-4.81a12.43,12.43,0,0,0,4.92-4.89,15.67,15.67,0,0,0,1.88-7.93,15.91,15.91,0,0,0-1.84-7.94,12,12,0,0,0-4.82-4.85,13.92,13.92,0,0,0-12.92,0,11.67,11.67,0,0,0-4.71,4.85,16.46,16.46,0,0,0-1.77,7.94,16.81,16.81,0,0,0,1.73,8,11.52,11.52,0,0,0,4.64,4.85,13,13,0,0,0,6.38,1.6A13.67,13.67,0,0,0,941.55,182.9Z" transform="translate(-26.46 -29.46)" style="fill: #fff"/>
    <path d="M974.74,151.87a15.06,15.06,0,0,1,7.68-1.84v6.66h-1.7q-10.83,0-10.84,11.76v21.11h-6.44V150.74h6.44V157A12.38,12.38,0,0,1,974.74,151.87Z" transform="translate(-26.46 -29.46)" style="fill: #fff"/>
    <path d="M989.86,159.56a17.41,17.41,0,0,1,6.62-7,18.2,18.2,0,0,1,9.39-2.48,17.14,17.14,0,0,1,8.85,2.2,14.64,14.64,0,0,1,5.6,5.52v-7.08h6.51v38.82h-6.51v-7.23a15.25,15.25,0,0,1-5.7,5.63,17.05,17.05,0,0,1-8.82,2.23,17.57,17.57,0,0,1-9.35-2.55,17.81,17.81,0,0,1-6.59-7.15A22.21,22.21,0,0,1,987.45,170,21.76,21.76,0,0,1,989.86,159.56Zm28.69,2.87a12.49,12.49,0,0,0-4.79-5,13.58,13.58,0,0,0-13.21,0,12.27,12.27,0,0,0-4.74,5A15.78,15.78,0,0,0,994,170a16.12,16.12,0,0,0,1.77,7.75,12.53,12.53,0,0,0,4.74,5,12.83,12.83,0,0,0,6.59,1.74,13,13,0,0,0,6.62-1.74,12.44,12.44,0,0,0,4.79-5,16,16,0,0,0,1.77-7.68A15.78,15.78,0,0,0,1018.55,162.43Zm-3.26-22.67-15.09,8.07V143l15.09-8.86Z" transform="translate(-26.46 -29.46)" style="fill: #fff"/>
    <path d="M1049,151.87a15.06,15.06,0,0,1,7.68-1.84v6.66H1055q-10.85,0-10.84,11.76v21.11h-6.45V150.74h6.45V157A12.36,12.36,0,0,1,1049,151.87Z" transform="translate(-26.46 -29.46)" style="fill: #fff"/>
    <path d="M1064.37,143.16a4.4,4.4,0,0,1,3.12-7.51,4.05,4.05,0,0,1,3,1.28,4.53,4.53,0,0,1,0,6.23,4.05,4.05,0,0,1-3,1.28A4.25,4.25,0,0,1,1064.37,143.16Zm6.24,7.58v38.82h-6.45V150.74Z" transform="translate(-26.46 -29.46)" style="fill: #fff"/>
    <path d="M1088.63,187.71a17.68,17.68,0,0,1-6.94-7,21.7,21.7,0,0,1-2.51-10.59,21,21,0,0,1,2.58-10.52,17.8,17.8,0,0,1,7-7,21.59,21.59,0,0,1,20,0,17.8,17.8,0,0,1,7,7,22.61,22.61,0,0,1-.07,21.15,18.42,18.42,0,0,1-7.19,7,20.52,20.52,0,0,1-10.06,2.48A19.81,19.81,0,0,1,1088.63,187.71Zm16.4-4.81A12.43,12.43,0,0,0,1110,178a15.57,15.57,0,0,0,1.88-7.93,15.91,15.91,0,0,0-1.84-7.94,12,12,0,0,0-4.82-4.85,13.92,13.92,0,0,0-12.92,0,11.61,11.61,0,0,0-4.71,4.85,16.35,16.35,0,0,0-1.78,7.94,16.81,16.81,0,0,0,1.74,8,11.52,11.52,0,0,0,4.64,4.85,13,13,0,0,0,6.37,1.6A13.68,13.68,0,0,0,1105,182.9Z" transform="translate(-26.46 -29.46)" style="fill: #fff"/>
    <path d="M1158,152.33a17.1,17.1,0,0,1,8.82-2.23,18.19,18.19,0,0,1,9.38,2.48,17.5,17.5,0,0,1,6.63,7,21.87,21.87,0,0,1,2.4,10.45,22.33,22.33,0,0,1-2.4,10.48,17.69,17.69,0,0,1-16,9.7,16.9,16.9,0,0,1-8.75-2.23,15.91,15.91,0,0,1-5.77-5.56V208h-6.45V150.74h6.45v7.15A15.31,15.31,0,0,1,1158,152.33Zm18.88,10a12.19,12.19,0,0,0-4.79-5,13.13,13.13,0,0,0-6.62-1.7,13,13,0,0,0-6.55,1.73,12.78,12.78,0,0,0-4.82,5,17.16,17.16,0,0,0,0,15.3,12.71,12.71,0,0,0,4.82,5,13.33,13.33,0,0,0,13.17,0,12.44,12.44,0,0,0,4.79-5,16.12,16.12,0,0,0,1.77-7.75A15.78,15.78,0,0,0,1176.86,162.36Z" transform="translate(-26.46 -29.46)" style="fill: #fff"/>
    <path d="M1193.71,159.56a17.5,17.5,0,0,1,6.63-7,18.17,18.17,0,0,1,9.38-2.48,17.21,17.21,0,0,1,8.86,2.2,14.61,14.61,0,0,1,5.59,5.52v-7.08h6.52v38.82h-6.52v-7.23a15.11,15.11,0,0,1-5.7,5.63,17.05,17.05,0,0,1-8.82,2.23,17.6,17.6,0,0,1-9.35-2.55,17.88,17.88,0,0,1-6.59-7.15,22.33,22.33,0,0,1-2.4-10.48A21.87,21.87,0,0,1,1193.71,159.56Zm28.69,2.87a12.46,12.46,0,0,0-4.78-5,13.58,13.58,0,0,0-13.21,0,12.29,12.29,0,0,0-4.75,5,15.78,15.78,0,0,0-1.77,7.65,16.12,16.12,0,0,0,1.77,7.75,12.55,12.55,0,0,0,4.75,5,12.8,12.8,0,0,0,6.59,1.74,13,13,0,0,0,6.62-1.74,12.42,12.42,0,0,0,4.78-5,16,16,0,0,0,1.77-7.68A15.78,15.78,0,0,0,1222.4,162.43Z" transform="translate(-26.46 -29.46)" style="fill: #fff"/>
    <path d="M1252.89,151.87a15.12,15.12,0,0,1,7.69-1.84v6.66h-1.7q-10.83,0-10.84,11.76v21.11h-6.44V150.74H1248V157A12.42,12.42,0,0,1,1252.89,151.87Z" transform="translate(-26.46 -29.46)" style="fill: #fff"/>
    <path d="M1268,159.56a17.41,17.41,0,0,1,6.62-7,18.2,18.2,0,0,1,9.39-2.48,17.17,17.17,0,0,1,8.85,2.2,14.54,14.54,0,0,1,5.59,5.52v-7.08H1305v38.82h-6.52v-7.23a15.11,15.11,0,0,1-5.7,5.63,17,17,0,0,1-8.82,2.23,17.62,17.62,0,0,1-9.35-2.55,17.86,17.86,0,0,1-6.58-7.15,22.21,22.21,0,0,1-2.41-10.48A21.76,21.76,0,0,1,1268,159.56Zm28.68,2.87a12.46,12.46,0,0,0-4.78-5,13.58,13.58,0,0,0-13.21,0,12.27,12.27,0,0,0-4.74,5,15.78,15.78,0,0,0-1.77,7.65,16.12,16.12,0,0,0,1.77,7.75,12.53,12.53,0,0,0,4.74,5,12.83,12.83,0,0,0,6.59,1.74,13,13,0,0,0,6.62-1.74,12.42,12.42,0,0,0,4.78-5,16,16,0,0,0,1.77-7.68A15.78,15.78,0,0,0,1296.7,162.43Z" transform="translate(-26.46 -29.46)" style="fill: #fff"/>
    <path d="M1349.26,183.61l12-32.87h6.87L1353,189.56h-7.51l-15.23-38.82h6.94Z" transform="translate(-26.46 -29.46)" style="fill: #fff"/>
    <path d="M1381.6,187.71a17.61,17.61,0,0,1-6.94-7,21.59,21.59,0,0,1-2.52-10.59,20.9,20.9,0,0,1,2.59-10.52,17.71,17.71,0,0,1,7-7,21.59,21.59,0,0,1,20,0,17.89,17.89,0,0,1,7,7,21,21,0,0,1,2.58,10.56,20.71,20.71,0,0,1-2.65,10.59,18.42,18.42,0,0,1-7.19,7,20.57,20.57,0,0,1-10.06,2.48A19.78,19.78,0,0,1,1381.6,187.71Zm16.4-4.81a12.49,12.49,0,0,0,4.92-4.89,15.67,15.67,0,0,0,1.87-7.93,15.91,15.91,0,0,0-1.84-7.94,12.07,12.07,0,0,0-4.81-4.85,13.94,13.94,0,0,0-12.93,0,11.67,11.67,0,0,0-4.71,4.85,16.46,16.46,0,0,0-1.77,7.94,16.93,16.93,0,0,0,1.73,8,11.58,11.58,0,0,0,4.64,4.85,13,13,0,0,0,6.38,1.6A13.73,13.73,0,0,0,1398,182.9Z" transform="translate(-26.46 -29.46)" style="fill: #fff"/>
    <path d="M1419.88,159.56a17.33,17.33,0,0,1,6.7-7,19.22,19.22,0,0,1,9.81-2.48q7.15,0,11.79,3.47a16.42,16.42,0,0,1,6.13,9.64h-6.94a10,10,0,0,0-3.87-5.6,11.88,11.88,0,0,0-7.11-2.05,11.41,11.41,0,0,0-8.93,3.79q-3.4,3.78-3.4,10.73t3.4,10.83a11.38,11.38,0,0,0,8.93,3.83,12.07,12.07,0,0,0,7.08-2,10.12,10.12,0,0,0,3.9-5.67h6.94a17.09,17.09,0,0,1-6.24,9.53,18.67,18.67,0,0,1-11.68,3.57,19.13,19.13,0,0,1-9.81-2.48,17.29,17.29,0,0,1-6.7-7,22.37,22.37,0,0,1-2.41-10.62A22,22,0,0,1,1419.88,159.56Z" transform="translate(-26.46 -29.46)" style="fill: #fff"/>
    <path d="M1498.08,172.56h-31a12.19,12.19,0,0,0,12.6,12.18,11.9,11.9,0,0,0,7-2,10.24,10.24,0,0,0,3.93-5.21h6.94a16.61,16.61,0,0,1-6.23,9.11,18.87,18.87,0,0,1-11.62,3.5,19.57,19.57,0,0,1-9.88-2.48,17.54,17.54,0,0,1-6.83-7,21.8,21.8,0,0,1-2.48-10.59,22.12,22.12,0,0,1,2.41-10.56,16.83,16.83,0,0,1,6.76-7,20.16,20.16,0,0,1,10-2.45,19.43,19.43,0,0,1,9.78,2.41,16.68,16.68,0,0,1,6.55,6.62,19.5,19.5,0,0,1,2.3,9.53A38.44,38.44,0,0,1,1498.08,172.56ZM1490,161a10.64,10.64,0,0,0-4.43-4,13.83,13.83,0,0,0-6.2-1.38,11.92,11.92,0,0,0-8.32,3.11,12.7,12.7,0,0,0-3.93,8.64h24.51A12,12,0,0,0,1490,161Zm-10.56-19.72-9.84,6v-5.1l9.84-5.88,9.78,5.88v5.1Z" transform="translate(-26.46 -29.46)" style="fill: #fff"/>
    <path d="M1508.85,188.71a4.39,4.39,0,0,1,3.11-7.51,4.06,4.06,0,0,1,3,1.27,4.57,4.57,0,0,1,0,6.24,4.06,4.06,0,0,1-3,1.27A4.23,4.23,0,0,1,1508.85,188.71Zm6.3-48.52-.78,35.41H1509l-.78-35.41Z" transform="translate(-26.46 -29.46)" style="fill: #fff"/>
  </g>
</svg>
